<svg aria-hidden="true" style="position: absolute; width: 0; height: 0; overflow: hidden;" version="1.1" xmlns="http://www.w3.org/2000/svg" xmlns:xlink="http://www.w3.org/1999/xlink">
<defs>
<symbol id="icon-logo" viewBox="0 0 52 32">
<path fill="#ff6b09" style="fill: var(--color1, #ff6b09)" d="M32 16c0 8.837-7.163 16-16 16s-16-7.163-16-16c0-8.837 7.163-16 16-16s16 7.163 16 16z"></path>
<path fill="#fff" style="fill: var(--color2, #fff)" d="M11.996 11.2h2.121v7.436h4.595v1.728h-6.716v-9.164zM24.442 20.521c-0.951 0-1.811-0.205-2.579-0.615-0.759-0.41-1.357-0.973-1.793-1.689-0.428-0.724-0.641-1.536-0.641-2.435s0.214-1.706 0.641-2.422c0.436-0.724 1.034-1.292 1.793-1.702 0.768-0.41 1.628-0.615 2.579-0.615s1.807 0.205 2.566 0.615c0.759 0.41 1.357 0.977 1.793 1.702 0.436 0.716 0.655 1.523 0.655 2.422s-0.218 1.711-0.655 2.435c-0.436 0.716-1.034 1.279-1.793 1.689s-1.615 0.615-2.566 0.615zM24.442 18.714c0.541 0 1.030-0.122 1.466-0.367 0.436-0.253 0.777-0.602 1.021-1.047 0.253-0.445 0.38-0.951 0.38-1.519s-0.127-1.073-0.38-1.519c-0.244-0.445-0.585-0.79-1.021-1.034-0.436-0.253-0.925-0.38-1.466-0.38s-1.030 0.127-1.466 0.38c-0.436 0.244-0.781 0.589-1.034 1.034-0.244 0.445-0.367 0.951-0.367 1.519s0.122 1.073 0.367 1.519c0.253 0.445 0.598 0.794 1.034 1.047 0.436 0.244 0.925 0.367 1.466 0.367zM37.504 15.638h1.937v3.718c-0.497 0.375-1.073 0.663-1.728 0.864s-1.313 0.301-1.977 0.301c-0.951 0-1.807-0.201-2.566-0.602-0.759-0.41-1.357-0.973-1.793-1.689-0.428-0.724-0.641-1.54-0.641-2.448s0.214-1.719 0.641-2.435c0.436-0.724 1.039-1.287 1.807-1.689 0.768-0.41 1.632-0.615 2.592-0.615 0.803 0 1.532 0.135 2.186 0.406s1.204 0.663 1.649 1.178l-1.361 1.257c-0.655-0.689-1.444-1.034-2.369-1.034-0.585 0-1.104 0.122-1.558 0.367s-0.807 0.589-1.060 1.034c-0.253 0.445-0.38 0.956-0.38 1.532 0 0.567 0.127 1.073 0.38 1.519s0.602 0.794 1.047 1.047c0.454 0.244 0.969 0.367 1.545 0.367 0.611 0 1.161-0.131 1.649-0.393v-2.684zM46.111 20.521c-0.951 0-1.811-0.205-2.579-0.615-0.759-0.41-1.357-0.973-1.793-1.689-0.428-0.724-0.641-1.536-0.641-2.435s0.214-1.706 0.641-2.422c0.436-0.724 1.034-1.292 1.793-1.702 0.768-0.41 1.628-0.615 2.579-0.615s1.807 0.205 2.566 0.615c0.759 0.41 1.357 0.977 1.793 1.702 0.436 0.716 0.655 1.523 0.655 2.422s-0.218 1.711-0.655 2.435c-0.436 0.716-1.034 1.279-1.793 1.689s-1.615 0.615-2.566 0.615zM46.111 18.714c0.541 0 1.030-0.122 1.466-0.367 0.436-0.253 0.777-0.602 1.021-1.047 0.253-0.445 0.38-0.951 0.38-1.519s-0.127-1.073-0.38-1.519c-0.244-0.445-0.585-0.79-1.021-1.034-0.436-0.253-0.925-0.38-1.466-0.38s-1.030 0.127-1.466 0.38c-0.436 0.244-0.781 0.589-1.034 1.034-0.244 0.445-0.367 0.951-0.367 1.519s0.122 1.073 0.367 1.519c0.253 0.445 0.598 0.794 1.034 1.047 0.436 0.244 0.925 0.367 1.466 0.367z"></path>
</symbol>

<symbol id="icon-search" viewBox="0 0 32 32">
<path d="M22.222 19.556h-1.404l-0.498-0.48c1.742-2.027 2.791-4.658 2.791-7.52 0-6.382-5.173-11.556-11.556-11.556s-11.556 5.173-11.556 11.556c0 6.382 5.173 11.556 11.556 11.556 2.862 0 5.493-1.049 7.52-2.791l0.48 0.498v1.404l8.889 8.871 2.649-2.649-8.871-8.889zM11.556 19.556c-4.427 0-8-3.573-8-8s3.573-8 8-8c4.427 0 8 3.573 8 8s-3.573 8-8 8z"></path>
</symbol>

<symbol id="burger-icon" viewBox="0 0 32 32">
<path d="M1.6 25.6h28.8v-3.2h-28.8v3.2zM1.6 17.6h28.8v-3.2h-28.8v3.2zM1.6 6.4v3.2h28.8v-3.2h-28.8z"></path>
</symbol>

<symbol id="icon-filter" viewBox="0 0 32 32">
<path d="M4 22.667v2.667h8v-2.667h-8zM4 6.667v2.667h13.333v-2.667h-13.333zM17.333 28v-2.667h10.667v-2.667h-10.667v-2.667h-2.667v8h2.667zM9.333 12v2.667h-5.333v2.667h5.333v2.667h2.667v-8h-2.667zM28 17.333v-2.667h-13.333v2.667h13.333zM20 12h2.667v-2.667h5.333v-2.667h-5.333v-2.667h-2.667v8z"></path>
</symbol>

<symbol id="icon-reset" viewBox="0 0 32 32">
<path d="M6.667 16h-5.333l6.667 6.667 6.667-6.667h-5.333c0-4.413 3.587-8 8-8s8 3.587 8 8c0 4.413-3.587 8-8 8v2.667c5.893 0 10.667-4.773 10.667-10.667s-4.773-10.667-10.667-10.667c-5.893 0-10.667 4.773-10.667 10.667z"></path>
</symbol>

<symbol id="icon-google" viewBox="0 0 151 32">
<path fill="#000" style="fill: var(--color1, #000)" d="M63.616 15.904h3.684v7.068c-0.946 0.713-2.041 1.261-3.285 1.643s-2.497 0.572-3.758 0.572c-1.809 0-3.435-0.382-4.878-1.145-1.444-0.78-2.58-1.85-3.41-3.211-0.813-1.377-1.22-2.929-1.22-4.654s0.407-3.269 1.22-4.629c0.83-1.377 1.975-2.447 3.435-3.211 1.46-0.78 3.103-1.17 4.928-1.17 1.527 0 2.912 0.257 4.156 0.772s2.29 1.261 3.136 2.24l-2.588 2.389c-1.244-1.311-2.746-1.966-4.505-1.966-1.112 0-2.099 0.232-2.962 0.697s-1.535 1.12-2.016 1.966c-0.481 0.846-0.722 1.817-0.722 2.912 0 1.079 0.241 2.041 0.722 2.887s1.145 1.51 1.991 1.991c0.863 0.465 1.842 0.697 2.937 0.697 1.161 0 2.207-0.249 3.136-0.747v-5.102zM77.641 25.088c-1.41 0-2.68-0.29-3.808-0.871-1.112-0.597-1.983-1.419-2.613-2.464s-0.946-2.232-0.946-3.559c0-1.327 0.315-2.514 0.946-3.559s1.502-1.858 2.613-2.439c1.128-0.597 2.397-0.896 3.808-0.896s2.671 0.299 3.783 0.896c1.112 0.581 1.983 1.394 2.613 2.439s0.946 2.232 0.946 3.559c0 1.327-0.315 2.514-0.946 3.559s-1.502 1.867-2.613 2.464c-1.112 0.581-2.373 0.871-3.783 0.871zM77.641 21.902c0.996 0 1.809-0.332 2.439-0.996 0.647-0.68 0.971-1.585 0.971-2.713s-0.324-2.024-0.971-2.688c-0.631-0.68-1.444-1.020-2.439-1.020s-1.817 0.34-2.464 1.020c-0.647 0.664-0.971 1.56-0.971 2.688s0.324 2.033 0.971 2.713c0.647 0.664 1.468 0.996 2.464 0.996zM94.447 25.088c-1.41 0-2.68-0.29-3.808-0.871-1.112-0.597-1.983-1.419-2.613-2.464s-0.946-2.232-0.946-3.559c0-1.327 0.315-2.514 0.946-3.559s1.502-1.858 2.613-2.439c1.128-0.597 2.398-0.896 3.808-0.896s2.671 0.299 3.783 0.896c1.112 0.581 1.983 1.394 2.613 2.439s0.946 2.232 0.946 3.559c0 1.327-0.315 2.514-0.946 3.559s-1.502 1.867-2.613 2.464c-1.112 0.581-2.373 0.871-3.783 0.871zM94.447 21.902c0.996 0 1.809-0.332 2.439-0.996 0.647-0.68 0.971-1.585 0.971-2.713s-0.324-2.024-0.971-2.688c-0.631-0.68-1.444-1.020-2.439-1.020s-1.817 0.34-2.464 1.020c-0.647 0.664-0.971 1.56-0.971 2.688s0.324 2.033 0.971 2.713c0.647 0.664 1.468 0.996 2.464 0.996zM118.696 11.499v11.15c0 2.456-0.639 4.281-1.916 5.476s-3.144 1.792-5.6 1.792c-1.294 0-2.522-0.158-3.684-0.473s-2.124-0.772-2.887-1.369l1.543-2.788c0.564 0.465 1.278 0.83 2.14 1.095 0.863 0.282 1.726 0.423 2.588 0.423 1.344 0 2.331-0.307 2.962-0.921 0.647-0.597 0.971-1.51 0.971-2.738v-0.572c-1.012 1.112-2.422 1.668-4.231 1.668-1.228 0-2.356-0.265-3.385-0.796-1.012-0.548-1.817-1.311-2.414-2.29s-0.896-2.107-0.896-3.385c0-1.278 0.299-2.406 0.896-3.385s1.402-1.734 2.414-2.265c1.029-0.548 2.157-0.821 3.385-0.821 1.941 0 3.418 0.639 4.43 1.916v-1.717h3.684zM111.354 21.056c1.029 0 1.867-0.299 2.514-0.896 0.664-0.614 0.996-1.41 0.996-2.389s-0.332-1.767-0.996-2.364c-0.647-0.614-1.485-0.921-2.514-0.921s-1.875 0.307-2.539 0.921c-0.664 0.597-0.996 1.385-0.996 2.364s0.332 1.775 0.996 2.389c0.664 0.597 1.51 0.896 2.539 0.896zM122.807 6.421h3.883v18.468h-3.883v-18.468zM143.908 18.244c0 0.050-0.025 0.398-0.075 1.045h-10.13c0.183 0.83 0.614 1.485 1.294 1.966s1.527 0.722 2.539 0.722c0.697 0 1.311-0.1 1.842-0.299 0.548-0.216 1.054-0.548 1.518-0.996l2.066 2.24c-1.261 1.444-3.103 2.165-5.525 2.165-1.51 0-2.846-0.29-4.007-0.871-1.161-0.597-2.057-1.419-2.688-2.464s-0.946-2.232-0.946-3.559c0-1.311 0.307-2.489 0.921-3.534 0.631-1.062 1.485-1.883 2.564-2.464 1.095-0.597 2.315-0.896 3.659-0.896 1.311 0 2.497 0.282 3.559 0.846s1.892 1.377 2.489 2.439c0.614 1.045 0.921 2.265 0.921 3.659zM136.964 14.236c-0.879 0-1.618 0.249-2.215 0.747s-0.962 1.178-1.095 2.041h6.596c-0.133-0.846-0.498-1.518-1.095-2.016-0.597-0.514-1.327-0.772-2.19-0.772z"></path>
<path fill="#2196f3" style="fill: var(--color2, #2196f3)" d="M31.743 13.038c0.142 0 0.257 0.115 0.257 0.258v2.704c0 1.012-0.094 2.002-0.274 2.962-1.395 7.457-7.964 13.092-15.838 13.038-8.836-0.061-15.907-7.2-15.887-16.036 0.019-8.82 7.176-15.964 16-15.964 4.323 0 8.246 1.715 11.126 4.501 0.104 0.101 0.107 0.266 0.004 0.369l-3.826 3.826c-0.099 0.098-0.258 0.101-0.359 0.005-1.808-1.721-4.253-2.777-6.946-2.777-5.561 0-10.039 4.446-10.076 10.007-0.038 5.597 4.488 10.146 10.076 10.146 4.534 0 8.369-2.995 9.634-7.115h-9.376c-0.142 0-0.258-0.115-0.258-0.258v-5.408c0-0.142 0.115-0.258 0.258-0.258l15.485 0z"></path>
<path fill="#1e88e5" style="fill: var(--color3, #1e88e5)" d="M31.742 13.038h-1.932c0.142 0 0.258 0.115 0.258 0.258v2.704c0 1.012-0.094 2.002-0.274 2.962-1.331 7.114-7.371 12.57-14.761 13.009 0.283 0.017 0.567 0.026 0.854 0.028 7.874 0.054 14.444-5.581 15.838-13.038 0.18-0.96 0.274-1.95 0.274-2.962v-2.704c0-0.142-0.115-0.258-0.258-0.258z"></path>
<path fill="#f44336" style="fill: var(--color4, #f44336)" d="M6.848 11.78l-4.859-3.511c2.726-4.931 7.979-8.269 14.012-8.269 4.323 0 8.246 1.715 11.126 4.501 0.104 0.101 0.107 0.266 0.004 0.369l-3.826 3.826c-0.098 0.098-0.257 0.101-0.358 0.005-1.808-1.721-4.253-2.777-6.947-2.777-4.058 0-7.556 2.399-9.152 5.857z"></path>
<path fill="#e53935" style="fill: var(--color5, #e53935)" d="M5.445 10.767l1.403 1.014c1.457-3.156 4.499-5.429 8.104-5.802 0.027-0.003 0.053-0.006 0.081-0.009-0.317-0.030-0.639-0.046-0.964-0.046-3.666 0-6.861 1.933-8.624 4.843z"></path>
<path fill="#e53935" style="fill: var(--color5, #e53935)" d="M25.194 4.501c0.104 0.101 0.107 0.266 0.004 0.369l-3.105 3.105c0.297 0.226 0.582 0.468 0.852 0.726 0.101 0.096 0.26 0.094 0.359-0.005l3.826-3.826c0.102-0.102 0.1-0.268-0.004-0.369-2.88-2.786-6.803-4.501-11.126-4.501-0.324 0-0.646 0.011-0.966 0.030 3.94 0.235 7.496 1.894 10.16 4.471z"></path>
<path fill="#4caf50" style="fill: var(--color6, #4caf50)" d="M27.737 26.874c-2.922 3.153-7.099 5.126-11.737 5.126-6.264 0-11.687-3.6-14.314-8.844l4.961-3.4c1.489 3.704 5.116 6.32 9.353 6.32 2.659 0 5.077-1.030 6.878-2.713l4.859 3.51z"></path>
<path fill="#43a047" style="fill: var(--color7, #43a047)" d="M6.647 19.756l-1.463 1.003c1.699 3.165 5.040 5.318 8.884 5.318 0.325 0 0.646-0.016 0.964-0.046-3.816-0.364-7.011-2.855-8.385-6.274z"></path>
<path fill="#43a047" style="fill: var(--color7, #43a047)" d="M16 32c4.638 0 8.815-1.974 11.737-5.126l-1.19-0.86c-2.743 3.414-6.859 5.679-11.51 5.957 0.319 0.019 0.64 0.029 0.963 0.029z"></path>
<path fill="#ffc107" style="fill: var(--color8, #ffc107)" d="M5.924 16c0 1.328 0.257 2.595 0.724 3.756l-4.961 3.4c-1.079-2.153-1.686-4.584-1.686-7.156 0-2.804 0.721-5.439 1.988-7.731l4.859 3.511c-0.593 1.283-0.924 2.713-0.924 4.22z"></path>
<path fill="#ffb300" style="fill: var(--color9, #ffb300)" d="M5.184 20.759l1.463-1.003c-0.467-1.161-0.724-2.429-0.724-3.756 0-1.507 0.331-2.937 0.924-4.22l-1.403-1.014c-0.911 1.504-1.44 3.269-1.452 5.164-0.012 1.747 0.421 3.392 1.192 4.829z"></path>
</symbol>
<symbol id="icon-close" viewBox="0 0 32 32">
    <path d="M32 3.223l-3.223-3.223-12.777 12.777-12.777-12.777-3.223 3.223 12.777 12.777-12.777 12.777 3.223 3.223 12.777-12.777 12.777 12.777 3.223-3.223-12.777-12.777 12.777-12.777z"></path>
</symbol>
<symbol id="icon-arrow_left" viewBox="0 0 32 32">
    <path d="M21.333 9.2l-2.03-2.089L10.666 16l8.637 8.889 2.03-2.089L14.74 16l6.593-6.8z"/></symbol>
<symbol id="icon-arrow_right" viewBox="0 0 32 32">
    <path d="M10.667 9.2l2.03-2.089L21.334 16l-8.637 8.889-2.03-2.089L17.26 16l-6.593-6.8z"/></symbol>
<symbol id="icon-heart" viewBox="0 0 32 32">
    <path d="M23.6 2c-3.363 0-6.258 2.736-7.599 5.594C14.659 4.736 11.764 2 8.4 2 3.763 2 0 5.764 0 10.401c0 9.433 9.516 11.906 16.001 21.232C22.131 22.365 32 19.533 32 10.401 32 5.764 28.237 2 23.6 2z"/></symbol>
<symbol id="icon-fullscreen" viewBox="0 0 32 32">
    <path d="M9.333 18.667h-2.667v6.667h6.667v-2.667h-4v-4zM6.667 13.333h2.667v-4h4v-2.667h-6.667v6.667zM22.667 22.667h-4v2.667h6.667v-6.667h-2.667v4zM18.667 6.667v2.667h4v4h2.667v-6.667h-6.667z"></path>
</symbol>
<symbol id="icon-heart-wihte" viewBox="0 0 32 32">
<path d="M16 30.22c-0.456 0-0.895-0.165-1.237-0.465-1.293-1.13-2.539-2.193-3.639-3.13l-0.006-0.005c-3.224-2.747-6.008-5.12-7.945-7.457-2.165-2.613-3.174-5.090-3.174-7.796 0-2.629 0.902-5.055 2.539-6.831 1.656-1.797 3.929-2.786 6.401-2.786 1.847 0 3.539 0.584 5.028 1.736 0.751 0.581 1.433 1.293 2.033 2.123 0.6-0.83 1.281-1.541 2.033-2.123 1.489-1.152 3.181-1.736 5.028-1.736 2.471 0 4.744 0.99 6.401 2.786 1.637 1.776 2.538 4.201 2.538 6.831 0 2.706-1.008 5.184-3.174 7.796-1.937 2.337-4.721 4.71-7.944 7.457-1.102 0.939-2.35 2.003-3.646 3.136-0.342 0.299-0.782 0.464-1.237 0.464zM8.939 3.625c-1.942 0-3.725 0.775-5.023 2.182-1.317 1.428-2.042 3.403-2.042 5.56 0 2.276 0.846 4.312 2.743 6.6 1.833 2.212 4.56 4.536 7.717 7.227l0.006 0.005c1.104 0.941 2.355 2.007 3.657 3.146 1.31-1.141 2.563-2.209 3.669-3.151 3.157-2.691 5.884-5.014 7.717-7.226 1.896-2.289 2.742-4.324 2.742-6.6 0-2.157-0.725-4.132-2.042-5.56-1.297-1.407-3.081-2.182-5.023-2.182-1.422 0-2.728 0.452-3.881 1.344-1.028 0.795-1.743 1.8-2.163 2.503-0.216 0.362-0.596 0.577-1.016 0.577s-0.801-0.216-1.016-0.577c-0.419-0.703-1.135-1.708-2.163-2.503-1.153-0.892-2.459-1.344-3.881-1.344z"></path>
</symbol>
<symbol id="icon-line" viewBox="0 0 2304 32">
<path  d="M16 16h2272"></path>
</symbol>

<symbol id="icon-user-profile-1" viewBox="0 0 32 32">
<path d="M29.474 32h-3.242c0-5.47-4.588-9.919-10.232-9.919s-10.23 4.45-10.23 9.919h-3.242c0-7.26 6.046-13.161 13.474-13.161 7.427 0 13.472 5.901 13.472 13.161z"></path>
<path d="M16.002 17.785c-4.901 0-8.891-3.991-8.891-8.892-0.002-4.903 3.988-8.893 8.891-8.893 4.904 0 8.894 3.988 8.894 8.893s-3.99 8.892-8.894 8.892zM16.002 3.242c-3.116 0-5.65 2.534-5.65 5.65s2.534 5.65 5.65 5.65c3.118 0 5.652-2.534 5.652-5.65s-2.537-5.65-5.652-5.65z"></path>
</symbol>

<symbol id="icon-user-profile-2" viewBox="0 0 32 32">
<path d="M3.236 21.654v7.111h25.529v-25.529h-25.529v7.111h-2.916v-6.791c0-1.788 1.448-3.236 3.236-3.236h24.889c1.788 0 3.236 1.448 3.236 3.236v24.889c0 1.788-1.448 3.236-3.236 3.236h-24.889c-1.788 0-3.236-1.448-3.236-3.236v-6.791h2.916zM17.964 14.542l-4.916-4.916 2.063-2.063 8.436 8.436-8.436 8.436-2.063-2.063 4.916-4.916h-17.644v-2.915h17.644z"></path>
</symbol>
<symbol id="icon-copy" viewBox="0 0 32 32">
<path fill="#8e9198" style="fill: var(--color1, #8e9198)" d="M13.12 14.29c0.075-0.495 0.24-0.93 0.45-1.305s0.51-0.69 0.885-0.93c0.36-0.225 0.81-0.33 1.365-0.345 0.345 0.015 0.66 0.075 0.945 0.195 0.3 0.135 0.57 0.315 0.78 0.54s0.375 0.495 0.51 0.795c0.135 0.3 0.195 0.63 0.21 0.96h2.685c-0.030-0.705-0.165-1.35-0.42-1.935s-0.6-1.095-1.050-1.515c-0.45-0.42-0.99-0.75-1.62-0.99s-1.32-0.345-2.085-0.345c-0.975 0-1.83 0.165-2.55 0.51s-1.32 0.795-1.8 1.38c-0.48 0.585-0.84 1.26-1.065 2.040s-0.36 1.59-0.36 2.46v0.405c0 0.87 0.12 1.68 0.345 2.46s0.585 1.455 1.065 2.025c0.48 0.57 1.080 1.035 1.8 1.365s1.575 0.51 2.55 0.51c0.705 0 1.365-0.12 1.98-0.345s1.155-0.54 1.62-0.945c0.465-0.405 0.84-0.87 1.11-1.41s0.435-1.11 0.45-1.725h-2.685c-0.015 0.315-0.090 0.6-0.225 0.87s-0.315 0.495-0.54 0.69c-0.225 0.195-0.48 0.345-0.78 0.45-0.285 0.105-0.585 0.135-0.9 0.15-0.54-0.015-0.99-0.12-1.335-0.345-0.375-0.24-0.675-0.555-0.885-0.93s-0.375-0.825-0.45-1.32c-0.075-0.495-0.12-1.005-0.12-1.5v-0.405c0-0.525 0.045-1.020 0.12-1.515zM16 1c-8.28 0-15 6.72-15 15s6.72 15 15 15c8.28 0 15-6.72 15-15s-6.72-15-15-15zM16 28c-6.615 0-12-5.385-12-12s5.385-12 12-12c6.615 0 12 5.385 12 12s-5.385 12-12 12z"></path>
</symbol>
<symbol id="icon-heart-footer" viewBox="0 0 32 32">
<path fill="#ff6b09" style="fill: var(--color2, #ff6b09)" d="M16 30.72l-2.24-2.24c-8.32-7.36-13.76-12.32-13.76-18.4 0-4.96 3.84-8.8 8.8-8.8 2.72 0 5.44 1.28 7.2 3.36 1.76-2.080 4.48-3.36 7.2-3.36 4.96 0 8.8 3.84 8.8 8.8 0 6.080-5.44 11.040-13.76 18.4l-2.24 2.24z"></path>
</symbol>
<symbol id="icon-arrow-black" viewBox="0 0 64 32">
<path d="M0 0l32 32 32-32h-64z"></path>
</symbol>
<symbol id="icon-delete" viewBox="0 0 32 32">
<path fill="#bbb" style="fill: var(--color1, #bbb)" d="M20.8 0h-19.2v32h28.8v-22.4l-9.6-9.6zM20.8 4.528l5.072 5.072h-5.072v-5.072zM27.2 28.8h-22.4v-25.6h12.8v9.6h9.6v16z"></path>
<path fill="#bbb" style="fill: var(--color1, #bbb)" d="M22.016 15.471l-2.256-2.272-3.728 3.728-3.904-3.904-2.256 2.272 3.888 3.888-3.696 3.712 2.256 2.256 3.712-3.696 3.728 3.728 2.256-2.272-3.728-3.728 3.728-3.712z"></path>
</symbol>
<symbol id="icon-Group" viewBox="0 0 32 32">
<path d="M25.436 21.333c-1.623 0-3.079 0.73-4.058 1.878l-9.632-5.955c0.098-0.403 0.151-0.824 0.151-1.256s-0.053-0.853-0.151-1.256l9.632-5.955c0.979 1.148 2.434 1.878 4.058 1.878 2.941 0 5.333-2.393 5.333-5.333s-2.393-5.333-5.333-5.333-5.333 2.393-5.333 5.333c0 0.433 0.053 0.853 0.151 1.256l-9.632 5.955c-0.979-1.148-2.434-1.878-4.058-1.878-2.941 0-5.333 2.393-5.333 5.333s2.393 5.333 5.333 5.333c1.624 0 3.079-0.73 4.058-1.878l9.631 5.955c-0.098 0.403-0.151 0.824-0.151 1.256 0 2.941 2.392 5.333 5.333 5.333s5.333-2.393 5.333-5.333c0-2.941-2.393-5.333-5.333-5.333zM25.436 2.462c1.584 0 2.872 1.288 2.872 2.872s-1.288 2.872-2.872 2.872c-1.583 0-2.872-1.288-2.872-2.872s1.288-2.872 2.872-2.872zM6.564 18.872c-1.583 0-2.872-1.288-2.872-2.872s1.288-2.872 2.872-2.872c1.583 0 2.872 1.288 2.872 2.872s-1.288 2.872-2.872 2.872zM25.436 29.538c-1.583 0-2.872-1.288-2.872-2.872s1.288-2.872 2.872-2.872c1.584 0 2.872 1.288 2.872 2.872s-1.288 2.872-2.872 2.872z"></path>
</symbol>
<symbol id="moon" viewBox="0 0 32 32"><path fill="currentColor" d="M17.701 32a15.97 15.97 0 0012.429-5.925c.442-.544-.04-1.339-.723-1.209-7.763 1.478-14.891-4.474-14.891-12.31 0-4.514 2.416-8.665 6.344-10.9.605-.345.453-1.262-.235-1.389-.879-.17-1.89-.267-2.923-.268-8.832 0-16 7.157-16 16 0 8.832 7.157 16 16 16z"/>
</symbol>
<symbol id="sun" viewBox="0 0 32 32"><path fill="currentColor" d="M16 10c-3.306 0-6 2.694-6 6s2.694 6 6 6 6-2.694 6-6-2.694-6-6-6zm15.4 5.031l-5.919-2.956L27.575 5.8c.281-.85-.525-1.656-1.369-1.369l-6.275 2.094L16.969.6c-.4-.8-1.537-.8-1.938 0l-2.956 5.919-6.281-2.094c-.85-.281-1.656.525-1.369 1.369l2.094 6.275L.6 15.032c-.8.4-.8 1.538 0 1.938l5.919 2.956-2.094 6.281c-.281.85.525 1.656 1.369 1.369l6.275-2.094 2.956 5.919c.4.8 1.538.8 1.938 0l2.956-5.919 6.275 2.094c.85.281 1.656-.525 1.369-1.369l-2.094-6.275 5.919-2.956c.813-.406.813-1.544.012-1.944zm-9.744 6.625c-3.119 3.119-8.194 3.119-11.313 0s-3.119-8.194 0-11.313c3.119-3.119 8.194-3.119 11.313 0s3.119 8.194 0 11.313z"/>
</symbol>
</defs>
</svg>
