<svg width="85" height="18" viewBox="0 0 85 18" fill="none" xmlns="http://www.w3.org/2000/svg">
<path d="M35.784 8.946H37.856V12.922C37.324 13.3233 36.708 13.6313 36.008 13.846C35.308 14.0607 34.6033 14.168 33.894 14.168C32.8767 14.168 31.962 13.9533 31.15 13.524C30.338 13.0853 29.6987 12.4833 29.232 11.718C28.7747 10.9433 28.546 10.0707 28.546 9.1C28.546 8.12933 28.7747 7.26133 29.232 6.496C29.6987 5.72133 30.3427 5.11933 31.164 4.69C31.9853 4.25133 32.9093 4.032 33.936 4.032C34.7947 4.032 35.574 4.17667 36.274 4.466C36.974 4.75533 37.562 5.17533 38.038 5.726L36.582 7.07C35.882 6.33267 35.0373 5.964 34.048 5.964C33.4227 5.964 32.8673 6.09467 32.382 6.356C31.8967 6.61733 31.5187 6.986 31.248 7.462C30.9773 7.938 30.842 8.484 30.842 9.1C30.842 9.70667 30.9773 10.248 31.248 10.724C31.5187 11.2 31.892 11.5733 32.368 11.844C32.8533 12.1053 33.404 12.236 34.02 12.236C34.6733 12.236 35.2613 12.096 35.784 11.816V8.946ZM43.6728 14.112C42.8794 14.112 42.1654 13.9487 41.5308 13.622C40.9054 13.286 40.4154 12.824 40.0608 12.236C39.7061 11.648 39.5288 10.9807 39.5288 10.234C39.5288 9.48733 39.7061 8.82 40.0608 8.232C40.4154 7.644 40.9054 7.18667 41.5308 6.86C42.1654 6.524 42.8794 6.356 43.6728 6.356C44.4661 6.356 45.1754 6.524 45.8008 6.86C46.4261 7.18667 46.9161 7.644 47.2708 8.232C47.6254 8.82 47.8028 9.48733 47.8028 10.234C47.8028 10.9807 47.6254 11.648 47.2708 12.236C46.9161 12.824 46.4261 13.286 45.8008 13.622C45.1754 13.9487 44.4661 14.112 43.6728 14.112ZM43.6728 12.32C44.2328 12.32 44.6901 12.1333 45.0448 11.76C45.4088 11.3773 45.5908 10.8687 45.5908 10.234C45.5908 9.59933 45.4088 9.09533 45.0448 8.722C44.6901 8.33933 44.2328 8.148 43.6728 8.148C43.1128 8.148 42.6508 8.33933 42.2868 8.722C41.9228 9.09533 41.7408 9.59933 41.7408 10.234C41.7408 10.8687 41.9228 11.3773 42.2868 11.76C42.6508 12.1333 43.1128 12.32 43.6728 12.32ZM53.1266 14.112C52.3333 14.112 51.6193 13.9487 50.9846 13.622C50.3593 13.286 49.8693 12.824 49.5146 12.236C49.1599 11.648 48.9826 10.9807 48.9826 10.234C48.9826 9.48733 49.1599 8.82 49.5146 8.232C49.8693 7.644 50.3593 7.18667 50.9846 6.86C51.6193 6.524 52.3333 6.356 53.1266 6.356C53.9199 6.356 54.6293 6.524 55.2546 6.86C55.8799 7.18667 56.3699 7.644 56.7246 8.232C57.0793 8.82 57.2566 9.48733 57.2566 10.234C57.2566 10.9807 57.0793 11.648 56.7246 12.236C56.3699 12.824 55.8799 13.286 55.2546 13.622C54.6293 13.9487 53.9199 14.112 53.1266 14.112ZM53.1266 12.32C53.6866 12.32 54.1439 12.1333 54.4986 11.76C54.8626 11.3773 55.0446 10.8687 55.0446 10.234C55.0446 9.59933 54.8626 9.09533 54.4986 8.722C54.1439 8.33933 53.6866 8.148 53.1266 8.148C52.5666 8.148 52.1046 8.33933 51.7406 8.722C51.3766 9.09533 51.1946 9.59933 51.1946 10.234C51.1946 10.8687 51.3766 11.3773 51.7406 11.76C52.1046 12.1333 52.5666 12.32 53.1266 12.32ZM66.7664 6.468V12.74C66.7664 14.1213 66.4071 15.148 65.6884 15.82C64.9698 16.492 63.9198 16.828 62.5384 16.828C61.8104 16.828 61.1198 16.7393 60.4664 16.562C59.8131 16.3847 59.2718 16.128 58.8424 15.792L59.7104 14.224C60.0278 14.4853 60.4291 14.6907 60.9144 14.84C61.3998 14.9987 61.8851 15.078 62.3704 15.078C63.1264 15.078 63.6818 14.9053 64.0364 14.56C64.4004 14.224 64.5824 13.7107 64.5824 13.02V12.698C64.0131 13.3233 63.2198 13.636 62.2024 13.636C61.5118 13.636 60.8771 13.4867 60.2984 13.188C59.7291 12.88 59.2764 12.4507 58.9404 11.9C58.6044 11.3493 58.4364 10.7147 58.4364 9.996C58.4364 9.27733 58.6044 8.64267 58.9404 8.092C59.2764 7.54133 59.7291 7.11667 60.2984 6.818C60.8771 6.51 61.5118 6.356 62.2024 6.356C63.2944 6.356 64.1251 6.71533 64.6944 7.434V6.468H66.7664ZM62.6364 11.844C63.2151 11.844 63.6864 11.676 64.0504 11.34C64.4238 10.9947 64.6104 10.5467 64.6104 9.996C64.6104 9.44533 64.4238 9.002 64.0504 8.666C63.6864 8.32067 63.2151 8.148 62.6364 8.148C62.0578 8.148 61.5818 8.32067 61.2084 8.666C60.8351 9.002 60.6484 9.44533 60.6484 9.996C60.6484 10.5467 60.8351 10.9947 61.2084 11.34C61.5818 11.676 62.0578 11.844 62.6364 11.844ZM69.0792 3.612H71.2632V14H69.0792V3.612ZM80.9481 10.262C80.9481 10.29 80.9341 10.486 80.9061 10.85H75.2081C75.3108 11.3167 75.5534 11.6853 75.9361 11.956C76.3188 12.2267 76.7948 12.362 77.3641 12.362C77.7561 12.362 78.1014 12.306 78.4001 12.194C78.7081 12.0727 78.9928 11.886 79.2541 11.634L80.4161 12.894C79.7068 13.706 78.6708 14.112 77.3081 14.112C76.4588 14.112 75.7074 13.9487 75.0541 13.622C74.4008 13.286 73.8968 12.824 73.5421 12.236C73.1874 11.648 73.0101 10.9807 73.0101 10.234C73.0101 9.49667 73.1828 8.834 73.5281 8.246C73.8828 7.64867 74.3634 7.18667 74.9701 6.86C75.5861 6.524 76.2721 6.356 77.0281 6.356C77.7654 6.356 78.4328 6.51467 79.0301 6.832C79.6274 7.14933 80.0941 7.60667 80.4301 8.204C80.7754 8.792 80.9481 9.478 80.9481 10.262ZM77.0421 8.008C76.5474 8.008 76.1321 8.148 75.7961 8.428C75.4601 8.708 75.2548 9.09067 75.1801 9.576H78.8901C78.8154 9.1 78.6101 8.722 78.2741 8.442C77.9381 8.15267 77.5274 8.008 77.0421 8.008Z" fill="black"/>
<g clip-path="url(#clip0)">
<path d="M17.8554 7.33402C17.9354 7.33402 18.0002 7.39888 18.0002 7.47889V9C18.0002 9.56932 17.9474 10.126 17.8459 10.666C17.0614 14.8604 13.3661 18.0303 8.93678 17.9998C3.96677 17.9655 -0.010737 13.9498 0.000266918 8.97972C0.0112005 4.01857 4.03652 0 9.00023 0C11.4321 0 13.6386 0.964758 15.2585 2.53188C15.317 2.58845 15.3186 2.68168 15.261 2.7392L13.109 4.89115C13.0536 4.94656 12.9641 4.948 12.9074 4.89396C11.8906 3.92614 10.5149 3.33197 9.00023 3.33197C5.87235 3.33197 3.35358 5.83284 3.33234 8.96066C3.311 12.109 5.85688 14.668 9.00023 14.668C11.5506 14.668 13.7078 12.9832 14.4191 10.666H9.14511C9.0651 10.666 9.00023 10.6011 9.00023 10.5211V7.47886C9.00023 7.39884 9.0651 7.33398 9.14511 7.33398H17.8554V7.33402Z" fill="#2196F3"/>
<path d="M17.855 7.33398H16.7685C16.8485 7.33398 16.9134 7.39885 16.9134 7.47886V8.99997C16.9134 9.56929 16.8605 10.126 16.7591 10.666C16.0106 14.6675 12.6129 17.7365 8.45605 17.9837C8.6151 17.9931 8.7752 17.9986 8.93643 17.9997C13.3658 18.0303 17.061 14.8604 17.8456 10.666C17.947 10.126 17.9999 9.56929 17.9999 8.99997V7.47883C17.9999 7.39885 17.935 7.33398 17.855 7.33398Z" fill="#1E88E5"/>
<path d="M3.85174 6.62632L1.11841 4.65138C2.65185 1.87787 5.60681 0 9.00002 0C11.4319 0 13.6384 0.964758 15.2583 2.53188C15.3168 2.58845 15.3183 2.68168 15.2608 2.7392L13.1088 4.89115C13.0535 4.94645 12.964 4.94817 12.9074 4.89424C11.8906 3.92625 10.5149 3.332 9.00002 3.332C6.71725 3.332 4.74956 4.68144 3.85174 6.62632Z" fill="#F44336"/>
<path d="M3.06274 6.05622L3.85183 6.62635C4.67132 4.85117 6.3823 3.57268 8.41047 3.36297C8.42573 3.36132 8.44039 3.35931 8.45592 3.35784C8.27744 3.34089 8.09656 3.33203 7.9136 3.33203C5.85144 3.33203 4.05426 4.41917 3.06274 6.05622Z" fill="#E53935"/>
<path d="M14.1717 2.53188C14.2302 2.58845 14.2317 2.68168 14.1741 2.73923L12.4275 4.4859C12.5948 4.61317 12.755 4.74929 12.907 4.894C12.9638 4.94803 13.0533 4.94659 13.1087 4.89118L15.2607 2.73923C15.3182 2.68168 15.3167 2.58848 15.2582 2.53188C13.6382 0.964758 11.4317 0 8.99988 0C8.81739 0 8.63633 0.00608203 8.45654 0.0168047C10.6728 0.148816 12.6732 1.08232 14.1717 2.53188Z" fill="#E53935"/>
<path d="M15.602 15.1164C13.9585 16.89 11.6087 18 8.99997 18C5.4764 18 2.42582 15.9751 0.948486 13.0252L3.73901 11.1129C4.5764 13.1965 6.61652 14.668 8.99997 14.668C10.4957 14.668 11.8561 14.0885 12.8687 13.1418L15.602 15.1164Z" fill="#4CAF50"/>
<path d="M3.73913 11.1129L2.91626 11.6768C3.87198 13.4572 5.7514 14.668 7.91355 14.668C8.09639 14.668 8.27713 14.659 8.45555 14.6421C6.30929 14.4375 4.51193 13.0359 3.73913 11.1129Z" fill="#43A047"/>
<path d="M9.00015 18.0001C11.6089 18.0001 13.9587 16.89 15.6022 15.1165L14.9327 14.6328C13.3895 16.5534 11.0745 17.8275 8.45825 17.9837C8.63755 17.9944 8.81818 18.0001 9.00015 18.0001Z" fill="#43A047"/>
<path d="M3.332 8.99998C3.332 9.74677 3.4765 10.4599 3.73908 11.1129L0.948516 13.0252C0.341543 11.8141 0 10.4469 0 8.99998C0 7.42273 0.405633 5.94034 1.11839 4.65137L3.85172 6.6263C3.51816 7.3481 3.332 8.15251 3.332 8.99998Z" fill="#FFC107"/>
<path d="M2.9161 11.6768L3.73897 11.1129C3.47639 10.4599 3.33189 9.74676 3.33189 8.99997C3.33189 8.15249 3.51805 7.34808 3.85161 6.62628L3.06253 6.05615C2.55012 6.90219 2.25274 7.89497 2.2455 8.96066C2.23882 9.94342 2.48234 10.8688 2.9161 11.6768Z" fill="#FFB300"/>
</g>
<defs>
<clipPath id="clip0">
<rect width="18" height="18" fill="white"/>
</clipPath>
</defs>
</svg>
