<svg aria-hidden="true" style="position: absolute; width: 0; height: 0; overflow: hidden;" version="1.1" xmlns="http://www.w3.org/2000/svg" xmlns:xlink="http://www.w3.org/1999/xlink">
<defs>
<symbol id="icon-logo" viewBox="0 0 52 32">
<path fill="#ff6b09" style="fill: var(--color1, #ff6b09)" d="M32 16c0 8.837-7.163 16-16 16s-16-7.163-16-16c0-8.837 7.163-16 16-16s16 7.163 16 16z"></path>
<path fill="#fff" style="fill: var(--color2, #fff)" d="M11.996 11.2h2.121v7.436h4.595v1.728h-6.716v-9.164zM24.442 20.521c-0.951 0-1.811-0.205-2.579-0.615-0.759-0.41-1.357-0.973-1.793-1.689-0.428-0.724-0.641-1.536-0.641-2.435s0.214-1.706 0.641-2.422c0.436-0.724 1.034-1.292 1.793-1.702 0.768-0.41 1.628-0.615 2.579-0.615s1.807 0.205 2.566 0.615c0.759 0.41 1.357 0.977 1.793 1.702 0.436 0.716 0.655 1.523 0.655 2.422s-0.218 1.711-0.655 2.435c-0.436 0.716-1.034 1.279-1.793 1.689s-1.615 0.615-2.566 0.615zM24.442 18.714c0.541 0 1.030-0.122 1.466-0.367 0.436-0.253 0.777-0.602 1.021-1.047 0.253-0.445 0.38-0.951 0.38-1.519s-0.127-1.073-0.38-1.519c-0.244-0.445-0.585-0.79-1.021-1.034-0.436-0.253-0.925-0.38-1.466-0.38s-1.030 0.127-1.466 0.38c-0.436 0.244-0.781 0.589-1.034 1.034-0.244 0.445-0.367 0.951-0.367 1.519s0.122 1.073 0.367 1.519c0.253 0.445 0.598 0.794 1.034 1.047 0.436 0.244 0.925 0.367 1.466 0.367zM37.504 15.638h1.937v3.718c-0.497 0.375-1.073 0.663-1.728 0.864s-1.313 0.301-1.977 0.301c-0.951 0-1.807-0.201-2.566-0.602-0.759-0.41-1.357-0.973-1.793-1.689-0.428-0.724-0.641-1.54-0.641-2.448s0.214-1.719 0.641-2.435c0.436-0.724 1.039-1.287 1.807-1.689 0.768-0.41 1.632-0.615 2.592-0.615 0.803 0 1.532 0.135 2.186 0.406s1.204 0.663 1.649 1.178l-1.361 1.257c-0.655-0.689-1.444-1.034-2.369-1.034-0.585 0-1.104 0.122-1.558 0.367s-0.807 0.589-1.060 1.034c-0.253 0.445-0.38 0.956-0.38 1.532 0 0.567 0.127 1.073 0.38 1.519s0.602 0.794 1.047 1.047c0.454 0.244 0.969 0.367 1.545 0.367 0.611 0 1.161-0.131 1.649-0.393v-2.684zM46.111 20.521c-0.951 0-1.811-0.205-2.579-0.615-0.759-0.41-1.357-0.973-1.793-1.689-0.428-0.724-0.641-1.536-0.641-2.435s0.214-1.706 0.641-2.422c0.436-0.724 1.034-1.292 1.793-1.702 0.768-0.41 1.628-0.615 2.579-0.615s1.807 0.205 2.566 0.615c0.759 0.41 1.357 0.977 1.793 1.702 0.436 0.716 0.655 1.523 0.655 2.422s-0.218 1.711-0.655 2.435c-0.436 0.716-1.034 1.279-1.793 1.689s-1.615 0.615-2.566 0.615zM46.111 18.714c0.541 0 1.030-0.122 1.466-0.367 0.436-0.253 0.777-0.602 1.021-1.047 0.253-0.445 0.38-0.951 0.38-1.519s-0.127-1.073-0.38-1.519c-0.244-0.445-0.585-0.79-1.021-1.034-0.436-0.253-0.925-0.38-1.466-0.38s-1.030 0.127-1.466 0.38c-0.436 0.244-0.781 0.589-1.034 1.034-0.244 0.445-0.367 0.951-0.367 1.519s0.122 1.073 0.367 1.519c0.253 0.445 0.598 0.794 1.034 1.047 0.436 0.244 0.925 0.367 1.466 0.367z"></path>
</symbol>

<symbol id="icon-search" viewBox="0 0 32 32">
<path fill="#445361" style="fill: var(--color1, #445361)" d="M22.222 19.556h-1.404l-0.498-0.48c1.742-2.027 2.791-4.658 2.791-7.52 0-6.382-5.173-11.556-11.556-11.556s-11.556 5.173-11.556 11.556c0 6.382 5.173 11.556 11.556 11.556 2.862 0 5.493-1.049 7.52-2.791l0.48 0.498v1.404l8.889 8.871 2.649-2.649-8.871-8.889zM11.556 19.556c-4.427 0-8-3.573-8-8s3.573-8 8-8c4.427 0 8 3.573 8 8s-3.573 8-8 8z"></path>
</symbol>

<symbol id="burger-icon" viewBox="0 0 32 32">
<path fill="#445361" style="fill: var(--color1, #445361)" d="M1.6 25.6h28.8v-3.2h-28.8v3.2zM1.6 17.6h28.8v-3.2h-28.8v3.2zM1.6 6.4v3.2h28.8v-3.2h-28.8z"></path>
</symbol>

<symbol id="icon-close" viewBox="0 0 32 32">
<path fill="#3b4b5a" style="fill: var(--color1, #3b4b5a)" d="M25.333 8.547l-1.88-1.88-7.453 7.453-7.453-7.453-1.88 1.88 7.453 7.453-7.453 7.453 1.88 1.88 7.453-7.453 7.453 7.453 1.88-1.88-7.453-7.453 7.453-7.453z"></path>
</symbol>

<symbol id="icon-filter" viewBox="0 0 32 32">
<path fill="#5e6671" style="fill: var(--color1, #5e6671)" d="M4 22.667v2.667h8v-2.667h-8zM4 6.667v2.667h13.333v-2.667h-13.333zM17.333 28v-2.667h10.667v-2.667h-10.667v-2.667h-2.667v8h2.667zM9.333 12v2.667h-5.333v2.667h5.333v2.667h2.667v-8h-2.667zM28 17.333v-2.667h-13.333v2.667h13.333zM20 12h2.667v-2.667h5.333v-2.667h-5.333v-2.667h-2.667v8z"></path>
</symbol>

<symbol id="icon-reset" viewBox="0 0 32 32">
<path fill="#5e6671" style="fill: var(--color1, #5e6671)" d="M6.667 16h-5.333l6.667 6.667 6.667-6.667h-5.333c0-4.413 3.587-8 8-8s8 3.587 8 8c0 4.413-3.587 8-8 8v2.667c5.893 0 10.667-4.773 10.667-10.667s-4.773-10.667-10.667-10.667c-5.893 0-10.667 4.773-10.667 10.667z"></path>
</symbol>

</defs>
</svg>




