<svg width="53" height="14" viewBox="0 0 53 14" fill="none" xmlns="http://www.w3.org/2000/svg">
<path d="M7.784 5.946H9.856V9.922C9.324 10.3233 8.708 10.6313 8.008 10.846C7.308 11.0607 6.60333 11.168 5.894 11.168C4.87667 11.168 3.962 10.9533 3.15 10.524C2.338 10.0853 1.69867 9.48333 1.232 8.718C0.774667 7.94333 0.546 7.07067 0.546 6.1C0.546 5.12933 0.774667 4.26133 1.232 3.496C1.69867 2.72133 2.34267 2.11933 3.164 1.69C3.98533 1.25133 4.90933 1.032 5.936 1.032C6.79467 1.032 7.574 1.17667 8.274 1.466C8.974 1.75533 9.562 2.17533 10.038 2.726L8.582 4.07C7.882 3.33267 7.03733 2.964 6.048 2.964C5.42267 2.964 4.86733 3.09467 4.382 3.356C3.89667 3.61733 3.51867 3.986 3.248 4.462C2.97733 4.938 2.842 5.484 2.842 6.1C2.842 6.70667 2.97733 7.248 3.248 7.724C3.51867 8.2 3.892 8.57333 4.368 8.844C4.85333 9.10533 5.404 9.236 6.02 9.236C6.67333 9.236 7.26133 9.096 7.784 8.816V5.946ZM15.6728 11.112C14.8794 11.112 14.1654 10.9487 13.5308 10.622C12.9054 10.286 12.4154 9.824 12.0608 9.236C11.7061 8.648 11.5288 7.98067 11.5288 7.234C11.5288 6.48733 11.7061 5.82 12.0608 5.232C12.4154 4.644 12.9054 4.18667 13.5308 3.86C14.1654 3.524 14.8794 3.356 15.6728 3.356C16.4661 3.356 17.1754 3.524 17.8008 3.86C18.4261 4.18667 18.9161 4.644 19.2708 5.232C19.6254 5.82 19.8028 6.48733 19.8028 7.234C19.8028 7.98067 19.6254 8.648 19.2708 9.236C18.9161 9.824 18.4261 10.286 17.8008 10.622C17.1754 10.9487 16.4661 11.112 15.6728 11.112ZM15.6728 9.32C16.2328 9.32 16.6901 9.13333 17.0448 8.76C17.4088 8.37733 17.5908 7.86867 17.5908 7.234C17.5908 6.59933 17.4088 6.09533 17.0448 5.722C16.6901 5.33933 16.2328 5.148 15.6728 5.148C15.1128 5.148 14.6508 5.33933 14.2868 5.722C13.9228 6.09533 13.7408 6.59933 13.7408 7.234C13.7408 7.86867 13.9228 8.37733 14.2868 8.76C14.6508 9.13333 15.1128 9.32 15.6728 9.32ZM25.1266 11.112C24.3333 11.112 23.6193 10.9487 22.9846 10.622C22.3593 10.286 21.8693 9.824 21.5146 9.236C21.1599 8.648 20.9826 7.98067 20.9826 7.234C20.9826 6.48733 21.1599 5.82 21.5146 5.232C21.8693 4.644 22.3593 4.18667 22.9846 3.86C23.6193 3.524 24.3333 3.356 25.1266 3.356C25.9199 3.356 26.6293 3.524 27.2546 3.86C27.8799 4.18667 28.3699 4.644 28.7246 5.232C29.0793 5.82 29.2566 6.48733 29.2566 7.234C29.2566 7.98067 29.0793 8.648 28.7246 9.236C28.3699 9.824 27.8799 10.286 27.2546 10.622C26.6293 10.9487 25.9199 11.112 25.1266 11.112ZM25.1266 9.32C25.6866 9.32 26.1439 9.13333 26.4986 8.76C26.8626 8.37733 27.0446 7.86867 27.0446 7.234C27.0446 6.59933 26.8626 6.09533 26.4986 5.722C26.1439 5.33933 25.6866 5.148 25.1266 5.148C24.5666 5.148 24.1046 5.33933 23.7406 5.722C23.3766 6.09533 23.1946 6.59933 23.1946 7.234C23.1946 7.86867 23.3766 8.37733 23.7406 8.76C24.1046 9.13333 24.5666 9.32 25.1266 9.32ZM38.7664 3.468V9.74C38.7664 11.1213 38.4071 12.148 37.6884 12.82C36.9698 13.492 35.9198 13.828 34.5384 13.828C33.8104 13.828 33.1198 13.7393 32.4664 13.562C31.8131 13.3847 31.2718 13.128 30.8424 12.792L31.7104 11.224C32.0278 11.4853 32.4291 11.6907 32.9144 11.84C33.3998 11.9987 33.8851 12.078 34.3704 12.078C35.1264 12.078 35.6818 11.9053 36.0364 11.56C36.4004 11.224 36.5824 10.7107 36.5824 10.02V9.698C36.0131 10.3233 35.2198 10.636 34.2024 10.636C33.5118 10.636 32.8771 10.4867 32.2984 10.188C31.7291 9.88 31.2764 9.45067 30.9404 8.9C30.6044 8.34933 30.4364 7.71467 30.4364 6.996C30.4364 6.27733 30.6044 5.64267 30.9404 5.092C31.2764 4.54133 31.7291 4.11667 32.2984 3.818C32.8771 3.51 33.5118 3.356 34.2024 3.356C35.2944 3.356 36.1251 3.71533 36.6944 4.434V3.468H38.7664ZM34.6364 8.844C35.2151 8.844 35.6864 8.676 36.0504 8.34C36.4238 7.99467 36.6104 7.54667 36.6104 6.996C36.6104 6.44533 36.4238 6.002 36.0504 5.666C35.6864 5.32067 35.2151 5.148 34.6364 5.148C34.0578 5.148 33.5818 5.32067 33.2084 5.666C32.8351 6.002 32.6484 6.44533 32.6484 6.996C32.6484 7.54667 32.8351 7.99467 33.2084 8.34C33.5818 8.676 34.0578 8.844 34.6364 8.844ZM41.0792 0.611999H43.2632V11H41.0792V0.611999ZM52.9481 7.262C52.9481 7.29 52.9341 7.486 52.9061 7.85H47.2081C47.3108 8.31667 47.5534 8.68533 47.9361 8.956C48.3188 9.22667 48.7948 9.362 49.3641 9.362C49.7561 9.362 50.1014 9.306 50.4001 9.194C50.7081 9.07267 50.9928 8.886 51.2541 8.634L52.4161 9.894C51.7068 10.706 50.6708 11.112 49.3081 11.112C48.4588 11.112 47.7074 10.9487 47.0541 10.622C46.4008 10.286 45.8968 9.824 45.5421 9.236C45.1874 8.648 45.0101 7.98067 45.0101 7.234C45.0101 6.49667 45.1828 5.834 45.5281 5.246C45.8828 4.64867 46.3634 4.18667 46.9701 3.86C47.5861 3.524 48.2721 3.356 49.0281 3.356C49.7654 3.356 50.4328 3.51467 51.0301 3.832C51.6274 4.14933 52.0941 4.60667 52.4301 5.204C52.7754 5.792 52.9481 6.478 52.9481 7.262ZM49.0421 5.008C48.5474 5.008 48.1321 5.148 47.7961 5.428C47.4601 5.708 47.2548 6.09067 47.1801 6.576H50.8901C50.8154 6.1 50.6101 5.722 50.2741 5.442C49.9381 5.15267 49.5274 5.008 49.0421 5.008Z" fill="black"/>
</svg>
