<svg width="16" height="16" fill="none" xmlns="http://www.w3.org/2000/svg"><path d="M8 14a.84.84 0 01-.541-.196c-.566-.476-1.111-.924-1.592-1.32l-.003-.001c-1.41-1.158-2.628-2.158-3.475-3.143C1.44 8.238 1 7.194 1 6.054c0-1.109.394-2.131 1.11-2.88C2.836 2.417 3.83 2 4.912 2c.808 0 1.548.246 2.2.732.328.245.626.544.889.894.263-.35.56-.65.89-.894A3.608 3.608 0 0111.09 2c1.08 0 2.075.417 2.8 1.174.716.749 1.11 1.771 1.11 2.88 0 1.14-.441 2.184-1.388 3.286-.848.985-2.066 1.985-3.476 3.143-.482.395-1.028.844-1.595 1.321A.84.84 0 018 14zM4.911 2.79c-.85 0-1.63.327-2.198.92-.576.602-.893 1.434-.893 2.344 0 .959.37 1.817 1.2 2.782.802.932 1.995 1.912 3.376 3.046l.003.002c.483.396 1.03.846 1.6 1.326.573-.481 1.121-.932 1.605-1.329 1.381-1.134 2.574-2.113 3.376-3.045.83-.965 1.2-1.823 1.2-2.782 0-.91-.317-1.742-.893-2.344a3.006 3.006 0 00-2.198-.92c-.622 0-1.194.19-1.698.567-.45.335-.763.758-.946 1.054A.518.518 0 018 4.655a.518.518 0 01-.445-.244 3.872 3.872 0 00-.946-1.054 2.786 2.786 0 00-1.698-.567z" fill="#878686" stroke="#878686" stroke-width=".3"/></svg>