<svg width="18" height="18" viewBox="0 0 18 18" fill="none" xmlns="http://www.w3.org/2000/svg">
<path d="M17.8554 7.33402C17.9354 7.33402 18.0002 7.39888 18.0002 7.47889V9C18.0002 9.56932 17.9474 10.126 17.8459 10.666C17.0614 14.8604 13.3661 18.0303 8.93678 17.9998C3.96677 17.9655 -0.010737 13.9498 0.000266918 8.97972C0.0112005 4.01857 4.03652 0 9.00023 0C11.4321 0 13.6386 0.964758 15.2585 2.53188C15.317 2.58845 15.3186 2.68168 15.261 2.7392L13.109 4.89115C13.0536 4.94656 12.9641 4.948 12.9074 4.89396C11.8906 3.92614 10.5149 3.33197 9.00023 3.33197C5.87235 3.33197 3.35358 5.83284 3.33234 8.96066C3.311 12.109 5.85688 14.668 9.00023 14.668C11.5506 14.668 13.7078 12.9832 14.4191 10.666H9.14511C9.0651 10.666 9.00023 10.6011 9.00023 10.5211V7.47886C9.00023 7.39884 9.0651 7.33398 9.14511 7.33398H17.8554V7.33402Z" fill="#2196F3"/>
</svg>
